<?xml version="1.0" encoding="UTF-8" standalone="no"?>
<svg
   width="129"
   height="28"
   viewBox="0 0 129 28"
   version="1.1"
   id="svg16"
   sodipodi:docname="logo.svg"
   inkscape:version="1.1.2 (0a00cf5339, 2022-02-04)"
   xmlns:inkscape="http://www.inkscape.org/namespaces/inkscape"
   xmlns:sodipodi="http://sodipodi.sourceforge.net/DTD/sodipodi-0.dtd"
   xmlns="http://www.w3.org/2000/svg"
   xmlns:svg="http://www.w3.org/2000/svg">
  <defs
     id="defs20" />
  <sodipodi:namedview
     id="namedview18"
     pagecolor="#ffffff"
     bordercolor="#666666"
     borderopacity="1.0"
     inkscape:pageshadow="2"
     inkscape:pageopacity="0.0"
     inkscape:pagecheckerboard="0"
     showgrid="false"
     inkscape:zoom="5.0116279"
     inkscape:cx="63.352668"
     inkscape:cy="7.1832947"
     inkscape:window-width="1920"
     inkscape:window-height="1020"
     inkscape:window-x="0"
     inkscape:window-y="28"
     inkscape:window-maximized="1"
     inkscape:current-layer="layer2" />
  <g
     fill="none"
     fill-rule="evenodd"
     id="g14">
    <path
       id="path2"
       d="m 108.88672,5.0019531 c -0.872,0 -1.59375,0.7069844 -1.59375,1.5839844 a 1.584,1.584 0 0 0 1.59375,1.5722656 c 0.884,0 1.59375,-0.6962656 1.59375,-1.5722656 0,-0.877 -0.71075,-1.5839844 -1.59375,-1.5839844 z M 67.632812,5.6015625 V 21.619141 h 2.669922 V 5.6015625 Z m 58.697268,0 V 21.619141 H 129 V 5.6015625 Z M 45.128906,6.0039062 C 40.724906,6.0039062 38,9.0558125 38,14.007812 38,18.938812 40.734625,22 45.140625,22 c 3.585,0 6.212125,-2.101797 6.578125,-5.216797 h -2.736328 c -0.377,1.71 -1.87375,2.787109 -3.84375,2.787109 -2.649,10e-7 -4.294922,-2.131218 -4.294922,-5.574218 0,-2.680908 1.008834,-4.5638905 2.707031,-5.261719 -0.107591,0.0112 -0.215315,0.023648 -0.322265,0.039063 -0.178432,0.025716 -0.347044,0.097084 -0.521485,0.1425781 -0.2325,0.060635 -0.464779,0.1231453 -0.699219,0.1757813 -0.08085,0.018153 -0.16326,0.019084 -0.24414,0.037109 -0.443874,0.098922 -0.364169,0.088381 -0.767578,0.2792969 C 40.103367,9.8306906 39.675632,8.9283469 40.568359,8.5058594 41.009232,8.297214 40.9471,8.3036487 41.492188,8.1679688 c 0.115895,-0.028848 0.23506,-0.034249 0.351562,-0.060547 0.208006,-0.046953 0.41494,-0.1036912 0.621094,-0.1582031 0.166792,-0.044104 0.327339,-0.1136989 0.498047,-0.1386719 0.499628,-0.073092 1.005526,-0.1025279 1.507812,-0.1542969 0.395614,-0.023539 0.789308,-0.062683 1.185547,-0.070312 0.442766,-0.00853 0.832949,-0.013402 1.193359,-0.013672 0.97947,-7.338e-4 1.784332,0.024161 2.865235,0.042969 -1.172475,-1.01213 -2.770289,-1.6113282 -4.585938,-1.6113282 z m 54.550782,1.2363282 v 2.9042966 h -1.863282 v 2.089844 h 1.863282 v 6.302734 c -10e-7,2.238 1.077292,3.136719 3.779292,3.136719 a 7.707,7.707 0 0 0 1.4004,-0.126953 v -2.048828 c -0.323,0.032 -0.5273,0.05273 -0.9043,0.05273 -1.12,0 -1.61524,-0.506484 -1.61524,-1.646484 v -5.671875 h 2.51954 v -2.089844 h -2.51954 V 7.2402344 Z m -52.800782,1.328125 c -0.203498,-4.21e-5 -0.443052,0.00347 -0.667968,0.00586 1.412597,0.3549373 2.449388,1.3964996 2.761718,2.8671872 h 2.734375 C 51.599482,10.383231 51.221905,9.4300801 50.640625,8.625 c -0.210307,-0.00284 -0.420533,-0.00468 -0.630859,-0.00781 -1.23686,-0.018449 -2.068728,-0.048608 -3.13086,-0.048828 z m 12.591797,1.2675781 c -3.414,0 -5.533203,2.3347815 -5.533203,6.0507815 0,3.717 2.087688,5.964843 5.554688,5.964843 2.777999,10e-7 4.750375,-1.310156 5.234374,-3.410156 h -2.53125 c -0.387999,0.855 -1.301953,1.330078 -2.626953,1.330078 -1.755,0 -2.887171,-1.204 -2.951171,-3.125 v -0.136718 h 8.228515 v -0.845704 c 0,-3.643 -2.015,-5.8281245 -5.375,-5.8281245 z m 19.15625,0 c -3.413,0 -5.533203,2.3347815 -5.533203,6.0507815 0,3.717 2.087688,5.964843 5.554688,5.964843 2.778,10e-7 4.750375,-1.310156 5.234374,-3.410156 h -2.53125 c -0.388,0.855 -1.301953,1.330078 -2.626953,1.330078 -1.755,0 -2.886172,-1.204 -2.951171,-3.125 v -0.136718 h 8.228515 v -0.845704 c 0,-3.643 -2.015,-5.8281245 -5.375,-5.8281245 z m 12.501953,0 c -2.778,0 -4.716797,1.4471095 -4.716797,3.5371095 0,1.743 1.067125,2.766437 3.328125,3.273437 l 2.087891,0.47461 c 1.12,0.244 1.626953,0.655547 1.626953,1.310547 0,0.856 -0.937203,1.435547 -2.283203,1.435547 -1.335,0 -2.164828,-0.506329 -2.423828,-1.361329 h -2.636719 c 0.205,2.101 2.056094,3.345703 4.996094,3.345703 2.939,10e-7 5.017578,-1.478312 5.017578,-3.695312 0,-1.7 -1.044922,-2.650484 -3.294922,-3.146484 l -2.078125,-0.464844 c -1.184,-0.264 -1.744141,-0.665313 -1.744141,-1.320313 10e-7,-0.833 0.915813,-1.402343 2.132813,-1.402343 1.248,0 2.033563,0.517078 2.226563,1.330078 h 2.511718 c -0.194,-2.102 -1.95,-3.3164065 -4.75,-3.3164065 z m 27.158204,0.00195 c -2.8,0 -4.74984,1.2979374 -4.96484,3.3359374 h 2.52148 c 0.247,-0.782 1.08645,-1.203125 2.31445,-1.203125 1.443,0 2.21875,0.633672 2.21875,1.763672 v 0.96875 l -3.03711,0.181641 c -2.864,0.169 -4.46875,1.37189 -4.46875,3.46289 0,2.111 1.62644,3.462891 3.89844,3.462891 1.539,0 2.83228,-0.653438 3.48828,-1.773438 h 0.18164 v 1.583985 h 2.57422 v -7.888672 c 0,-2.449 -1.70056,-3.8945314 -4.72656,-3.8945314 z M 107.5625,10.070312 v 11.548829 h 2.66016 V 10.070312 Z m -48.101562,1.845704 c 1.603999,0 2.65889,1.098593 2.71289,2.808593 h -5.544922 c 0.118,-1.689 1.239032,-2.808593 2.832032,-2.808593 z m 19.15625,0 c 1.604,0 2.65889,1.098593 2.71289,2.808593 h -5.544922 c 0.118,-1.689 1.238032,-2.808593 2.832032,-2.808593 z M 120.375,16.46875 v 0.917969 c 0,1.341 -1.20531,2.365234 -2.82031,2.365234 -1.185,0 -2.03516,-0.581734 -2.03516,-1.552734 0,-0.94 0.70027,-1.4675 2.19727,-1.5625 z" />
    <g
       id="g12">
      <circle
         cx="14"
         cy="14"
         r="14"
         fill="#F2125E"
         id="circle4" />
      <g
         fill="#FFF"
         id="g10">
        <path
           d="M6.078 18.861v-5.267a4.544 4.544 0 1 1 9.088 0v5.267H6.079z"
           opacity=".428"
           id="path6" />
        <path
           d="M20.884 9v9.811H6z"
           id="path8" />
      </g>
    </g>
  </g>
  <g
     inkscape:groupmode="layer"
     id="layer2"
     inkscape:label="Layer 1">
    <text
       xml:space="preserve"
       style="font-style:normal;font-weight:normal;font-size:29.2327px;line-height:1.25;font-family:sans-serif;opacity:1;fill:#f2125e;fill-opacity:1;stroke:none;stroke-width:1.218;stroke-miterlimit:4;stroke-dasharray:none;stroke-opacity:1"
       x="26.827063"
       y="22.021362"
       id="text3876"
       transform="scale(1.0260013,0.97465764)"><tspan
         sodipodi:role="line"
         id="tspan3874"
         x="26.827063"
         y="22.021362"
         style="font-size:29.2327px;fill:#f2125e;fill-opacity:1;stroke:none;stroke-width:1.218;stroke-miterlimit:4;stroke-dasharray:none;stroke-opacity:1">myNFT</tspan></text>
  </g>
</svg>
